# xmcd
#
# Track frame offsets: 
#        150
#        20774
#        37489
#        54184
#        73793
#        88188
#        102650
#        120589
#        138901
#        154185
#
# Disc length: 2296 seconds
#
# Revision: 0
# Processed by: cddbd v1.5.2PL0 Copyright (c) Steve Scherf et al.
# Submitted via: ExactAudioCopy v0.99pb5
#
DISCID=9008f60a
DTITLE=Champion Jack Dupree - Blues From The Gutter
DYEAR=1992
DGENRE=Blues
TTITLE0=Strollin'
TTITLE1=T.B. Blues
TTITLE2=Can't Kick The Habit
TTITLE3=Evil Woman
TTITLE4=Nasty Boogie
TTITLE5=Junker's Blues
TTITLE6=Bad Blood
TTITLE7=Goin' Down Slow
TTITLE8=Frankie and Johnnie
TTITLE9=Stack-O-Lee
EXTD=
EXTT0=
EXTT1=
EXTT2=
EXTT3=
EXTT4=
EXTT5=
EXTT6=
EXTT7=
EXTT8=
EXTT9=
PLAYORDER=
